<svg width="12" height="12" viewBox="0 0 12 12" fill="none" xmlns="http://www.w3.org/2000/svg">
<path d="M10.6666 5.33332H6.66663V1.33332C6.66663 0.965133 6.36815 0.666656 5.99996 0.666656C5.63177 0.666656 5.33329 0.965133 5.33329 1.33332V5.33332H1.33329C0.965103 5.33332 0.666626 5.6318 0.666626 5.99999C0.666626 6.36818 0.965103 6.66666 1.33329 6.66666H5.33329V10.6667C5.33329 11.0348 5.63177 11.3333 5.99996 11.3333C6.36815 11.3333 6.66663 11.0348 6.66663 10.6667V6.66666H10.6666C11.0348 6.66666 11.3333 6.36818 11.3333 5.99999C11.3333 5.6318 11.0348 5.33332 10.6666 5.33332Z" fill="white"/>
</svg>
