<svg width="12" height="6" viewBox="0 0 12 6" fill="none" xmlns="http://www.w3.org/2000/svg">
<path d="M6.00041 5.91773C5.8057 5.91811 5.61701 5.8503 5.46708 5.72607L0.467078 1.5594C0.112695 1.26485 0.0641929 0.738781 0.358745 0.384398C0.653297 0.0300157 1.17936 -0.0184868 1.53374 0.276065L6.00041 4.0094L10.4671 0.409398C10.6392 0.26959 10.86 0.204174 11.0806 0.227635C11.3011 0.251097 11.5032 0.361499 11.6421 0.534398C11.7964 0.707615 11.8715 0.937296 11.8493 1.1682C11.8272 1.3991 11.7098 1.61032 11.5254 1.75107L6.52541 5.77606C6.37118 5.88066 6.18633 5.93054 6.00041 5.91773Z" fill="#455560"/>
</svg>
