<svg width="9" height="16" viewBox="0 0 9 16" fill="none" xmlns="http://www.w3.org/2000/svg">
<path d="M1.99999 15C1.76634 15.0005 1.53991 14.9191 1.35999 14.77C1.15549 14.6005 1.02685 14.3565 1.00246 14.092C0.978067 13.8274 1.05993 13.5641 1.22999 13.36L5.70999 8L1.38999 2.63C1.22222 2.4234 1.14372 2.15846 1.17188 1.89382C1.20003 1.62917 1.33251 1.38667 1.53999 1.22C1.74916 1.03596 2.02562 0.947523 2.30277 0.975997C2.57991 1.00447 2.83262 1.14727 2.99999 1.37L7.82999 7.37C8.13331 7.739 8.13331 8.271 7.82999 8.64L2.82999 14.64C2.62653 14.8854 2.31823 15.0192 1.99999 15Z" fill="#212B36"/>
</svg>
