<svg width="12" height="12" viewBox="0 0 12 12" fill="none" xmlns="http://www.w3.org/2000/svg">
<path d="M10.6667 5.33333H6.66675V1.33333C6.66675 0.965141 6.36827 0.666664 6.00008 0.666664C5.63189 0.666664 5.33341 0.965141 5.33341 1.33333V5.33333H1.33341C0.965225 5.33333 0.666748 5.63181 0.666748 6C0.666748 6.36819 0.965225 6.66666 1.33341 6.66666H5.33341V10.6667C5.33341 11.0349 5.63189 11.3333 6.00008 11.3333C6.36827 11.3333 6.66675 11.0349 6.66675 10.6667V6.66666H10.6667C11.0349 6.66666 11.3334 6.36819 11.3334 6C11.3334 5.63181 11.0349 5.33333 10.6667 5.33333Z" fill="#212B36"/>
</svg>
