<svg width="9" height="16" viewBox="0 0 9 16" fill="none" xmlns="http://www.w3.org/2000/svg">
<path d="M7.00001 15C7.23366 15.0005 7.46009 14.9191 7.64001 14.77C7.84451 14.6005 7.97315 14.3565 7.99754 14.092C8.02193 13.8274 7.94007 13.5641 7.77001 13.36L3.29001 8L7.61001 2.63C7.77778 2.4234 7.85628 2.15846 7.82812 1.89382C7.79997 1.62917 7.66749 1.38667 7.46001 1.22C7.25084 1.03596 6.97438 0.947523 6.69723 0.975997C6.42009 1.00447 6.16738 1.14727 6.00001 1.37L1.17001 7.37C0.86669 7.739 0.86669 8.271 1.17001 8.64L6.17001 14.64C6.37347 14.8854 6.68177 15.0192 7.00001 15Z" fill="#212B36"/>
</svg>
